{"title":"Superman.Man.of.Steel.2013.480p.R6.LiNE.x264.AAC-DAMN-RELOADED-(","uid":8654689,"size":716862107,"categoryP":"video","categoryS":"movies","magnet":"?xt=urn:btih:d3bfff6b91b48938579da94397afa667df10bd7d&amp;dn=Superman.Man.of.Steel.2013.480p.R6.LiNE.x264.AAC-DAMN-RELOADED-%28&amp;tr=udp%3A%2F%2Ftracker.openbittorrent.com%3A80&amp;tr=udp%3A%2F%2Fopen.demonii.com%3A1337&amp;tr=udp%3A%2F%2Ftracker.coppersurfer.tk%3A6969&amp;tr=udp%3A%2F%2Fexodus.desync.com%3A6969","seeders":1,"leechers":0,"uploader":"ManinBlue","files":3,"time":1373188291,"description":"This is such a good copy of Man Of Steel that i had to upload it to keep it around!\nNothing changed. This is how I downloaded it.\n &lt;a href=&quot;\nhttp://www.imdb.com/title/tt0770828/&quot; rel=&quot;nofollow&quot; target=&quot;_NEW&quot;&gt;\nhttp://www.imdb.com/title/tt0770828/&lt;/a&gt;\n\nAll credit goes to original groups/ up-loaders.\n\nenjoy!\n                                                                                                \n                                                                                   Complete name :Superman.Man.of.Steel.2013.480p.R6.LiNE.x264.AAC-DAMN.mp4                           \nFormat                                   : MPEG-4\nFormat profile                           : Base Media\nCodec ID                                 : isom\nFile size                                : 683 MiB\nDuration                                 : 2h 22mn\nOverall bit rate                         : 668 Kbps\nMovie name                               : Downloaded from\nWriting application                      : Lavf55.0.100\nComment                                  : Downloaded from\n\nVideo\nID                                       : 1\nFormat                                   : AVC\nFormat/Info                              : Advanced Video Codec\nFormat profile                           : &lt;a class=&quot;__cf_email__&quot; href=&quot;/cdn-cgi/l/email-protection&quot; data-cfemail=&quot;d59dbcb2bd9599e6fbe4&quot;&gt;[email&amp;#160;protected]&lt;/a&gt;&lt;script cf-hash='f9e31' type=&quot;text/javascript&quot;&gt;\n/* &lt;![CDATA[ */!function(){try{var t=&quot;currentScript&quot;in document?document.currentScript:function(){for(var t=document.getElementsByTagName(&quot;script&quot;),e=t.length;e--;)if(t[e].getAttribute(&quot;cf-hash&quot;))return t[e]}();if(t&amp;&amp;t.previousSibling){var e,r,n,i,c=t.previousSibling,a=c.getAttribute(&quot;data-cfemail&quot;);if(a){for(e=&quot;&quot;,r=parseInt(a.substr(0,2),16),n=2;a.length-n;n+=2)i=parseInt(a.substr(n,2),16)^r,e+=String.fromCharCode(i);e=document.createTextNode(e),c.parentNode.replaceChild(e,c)}}}catch(u){}}();/* ]]&gt; */&lt;/script&gt;\nFormat settings, CABAC                   : Yes\nFormat settings, ReFrames                : 5 frames\nCodec ID                                 : avc1\nCodec ID/Info                            : Advanced Video Coding\nDuration                                 : 2h 22mn\nBit rate                                 : 539 Kbps\nWidth                                    : 720 pixels\nHeight                                   : 302 pixels\nDisplay aspect ratio                     : 2.40:1\nFrame rate mode                          : Constant\nFrame rate                               : 29.970 fps\nColor space                              : YUV\nChroma subsampling                       : 4:2:0\nBit depth                                : 8 bits\nScan type                                : Progressive\nBits/(Pixel*Frame)                       : 0.083\nStream size                              : 551 MiB (81%)\nWriting library                          : x264 core 130 r2274 c832fe9\n\n\n\nAudio\nID                                       : 2\nFormat                                   : AAC\nFormat/Info                              : Advanced Audio Codec\nFormat profile                           : LC\nCodec ID                                 : 40\nDuration                                 : 2h 13mn\nBit rate mode                            : Constant\nBit rate                                 : 128 Kbps\nChannel(s)                               : 2 channels\nChannel positions                        : Front: L R\nSampling rate                            : 48.0 KHz\nCompression mode                         : Lossy\nDelay relative to video                  : 67ms\nStream size                              : 122 MiB (18%)\n\n       ","torrent":{"xt":"urn:btih:d3bfff6b91b48938579da94397afa667df10bd7d","amp;dn":"Superman.Man.of.Steel.2013.480p.R6.LiNE.x264.AAC-DAMN-RELOADED-%28","amp;tr":["udp%3A%2F%2Ftracker.openbittorrent.com%3A80","udp%3A%2F%2Fopen.demonii.com%3A1337","udp%3A%2F%2Ftracker.coppersurfer.tk%3A6969","udp%3A%2F%2Fexodus.desync.com%3A6969"],"infoHash":"d3bfff6b91b48938579da94397afa667df10bd7d","infoHashBuffer":{"type":"Buffer","data":[211,191,255,107,145,180,137,56,87,157,169,67,151,175,166,103,223,16,189,125]},"announce":[],"urlList":[]}}